<?xml version="1.0" encoding="utf-8"?>
<!-- Generator: Adobe Illustrator 26.3.1, SVG Export Plug-In . SVG Version: 6.00 Build 0)  -->
<svg version="1.1" id="Layer_1" xmlns="http://www.w3.org/2000/svg" xmlns:xlink="http://www.w3.org/1999/xlink" x="0px" y="0px"
	 viewBox="0 0 500 500" style="enable-background:new 0 0 500 500;" xml:space="preserve">
<style type="text/css">
	.st0{fill:#FFFFFF;}
	.st1{fill:url(#SVGID_1_);}
	.st2{fill:url(#SVGID_00000083772977775728334450000011530302543750578856_);}
	.st3{fill:url(#SVGID_00000122687853420006781840000016767856892639622531_);}
	.st4{fill:url(#SVGID_00000005262658086529572990000003401549884706374049_);}
	.st5{fill:url(#SVGID_00000098199668233711004410000017810245536490421651_);}
	.st6{fill:url(#SVGID_00000072268029306608644870000012882141225190378158_);}
	.st7{fill:url(#SVGID_00000008849617441768711180000008499776208792253077_);}
	.st8{fill:url(#SVGID_00000131329121738443347000000008480960740636451754_);}
	.st9{fill:url(#SVGID_00000139982842468222074500000015625928642811808171_);}
	.st10{fill:#7F8183;}
	.st11{fill:url(#SVGID_00000079456724043708558430000006043733434606051490_);}
	.st12{fill:url(#SVGID_00000117640639535287025080000007025662925931919280_);}
	.st13{fill:url(#SVGID_00000170984741678132473740000001696003092884088989_);}
	.st14{fill:url(#SVGID_00000023964968577163655040000000294218899210299520_);}
	.st15{fill:url(#SVGID_00000036951095542553009970000009927637644437489039_);}
	.st16{fill:url(#SVGID_00000047021040778404088060000003897977976505685949_);}
	.st17{fill:url(#SVGID_00000160153506465807405350000002353808562852765324_);}
	.st18{fill:url(#SVGID_00000130620547811066133420000002049235860247488391_);}
	.st19{fill:url(#SVGID_00000073002171724393312720000016884551908023351447_);}
	.st20{fill:url(#SVGID_00000053509438305106611440000014726775406862831768_);}
	.st21{fill:url(#SVGID_00000062152508416735928310000015816638988656589188_);}
	.st22{fill:url(#SVGID_00000044880737897422239430000003293428535103902857_);}
	.st23{fill:url(#SVGID_00000090983571499582850260000016573841415900982950_);}
	.st24{fill:url(#SVGID_00000181072890165831812310000012384725234053164708_);}
	.st25{fill:url(#SVGID_00000018921668597397357990000007362126030082174115_);}
</style>
<g>
	<circle cx="156" cy="198.5" r="29"/>
	<circle cx="79" cy="250" r="29"/>
	<circle cx="156" cy="300.5" r="29"/>
	<path d="M442.5,236.5L234.8,107.8c-10.6-6.6-24.3,1.1-24.3,13.5v41c0,6.6,6.6,11.4,12.8,9.1c4.9-1.9,10.4-2.4,16.2-1.3
		c11.3,2.2,20.4,11.3,22.6,22.6c3.6,18.6-10.5,34.8-28.5,34.8c-3.6,0-7-0.6-10.1-1.8c-6.3-2.4-13,2.3-13,9v29.5
		c0,6.6,6.6,11.4,12.8,9.1c4.9-1.9,10.4-2.4,16.2-1.3c11.3,2.2,20.4,11.3,22.6,22.6c3.6,18.6-10.5,34.8-28.5,34.8
		c-3.6,0-7-0.6-10.1-1.8c-6.3-2.4-13,2.3-13,9v42c0,12.5,13.7,20.1,24.3,13.5l207.6-128.7C452.5,257.3,452.5,242.7,442.5,236.5z
		 M310.6,279c-16,0-29-13-29-29c0-16,13-29,29-29c16,0,29,13,29,29C339.6,266,326.6,279,310.6,279z"/>
</g>
</svg>
