<?xml version="1.0" encoding="utf-8"?>
<!-- Generator: Adobe Illustrator 26.3.1, SVG Export Plug-In . SVG Version: 6.00 Build 0)  -->
<svg version="1.1" id="Layer_1" xmlns="http://www.w3.org/2000/svg" xmlns:xlink="http://www.w3.org/1999/xlink" x="0px" y="0px"
	 viewBox="0 0 900 200" style="enable-background:new 0 0 900 200;" xml:space="preserve">
<style type="text/css">
	.st0{fill:#FFFFFF;}
	.st1{fill:url(#SVGID_1_);}
	.st2{fill:url(#SVGID_00000074408840999190118710000013682737257067105429_);}
	.st3{fill:url(#SVGID_00000031193540293380340070000011322204308982662047_);}
	.st4{fill:url(#SVGID_00000079458443495536150730000003307434566622897337_);}
	.st5{fill:url(#SVGID_00000139269286785263246140000007276602930550767492_);}
	.st6{fill:url(#SVGID_00000100373254182349551080000011020299252286927008_);}
	.st7{fill:url(#SVGID_00000060721052670667602480000018133656425781771432_);}
	.st8{fill:url(#SVGID_00000178181245961602099020000000057733713623052192_);}
	.st9{fill:url(#SVGID_00000042015605316260984000000016937177025282428333_);}
	.st10{fill:#7F8183;}
	.st11{fill:url(#SVGID_00000036958407844659010940000005610943726297635734_);}
	.st12{fill:url(#SVGID_00000117675553371983230250000018378726529471043715_);}
	.st13{fill:url(#SVGID_00000042723896088477401170000002060179563728305338_);}
	.st14{fill:url(#SVGID_00000100361786575233392530000003419385467555074460_);}
	.st15{fill:url(#SVGID_00000165913377853741983530000007172965325047666078_);}
	.st16{fill:url(#SVGID_00000013186977542150813220000007861200488023201157_);}
	.st17{fill:url(#SVGID_00000085243747525831979790000009801973005975908018_);}
	.st18{fill:url(#SVGID_00000176731672833269733200000001402978947008864952_);}
	.st19{fill:url(#SVGID_00000049935432629851431650000017437947519329802664_);}
	.st20{fill:url(#SVGID_00000121964256192368425500000004499447812093799088_);}
	.st21{fill:url(#SVGID_00000139280819442624841460000013789192277763094712_);}
	.st22{fill:url(#SVGID_00000067957891745565035940000010121035961688255142_);}
	.st23{fill:url(#SVGID_00000136399138225584382400000014818618007242582970_);}
	.st24{fill:url(#SVGID_00000079443714006158447330000007561185436843064740_);}
	.st25{fill:url(#SVGID_00000065782187651287875500000003720352158952206721_);}
</style>
<g>
	<path d="M272.7,82c-0.4-1.2-1-2.3-1.8-3.2c-0.8-0.9-2-1.7-3.5-2.2c-1.4-0.6-3.2-1-5.3-1.2c-2.1-0.3-4.6-0.4-7.6-0.4h-36.9v50h8.5
		v-18.8h24.3c3.7,0,6.8-0.1,9.3-0.4c2.6-0.3,4.7-0.7,6.4-1.3c1.8-0.6,3.2-1.4,4.2-2.4c1-1,1.8-2.1,2.2-3.4c0.4-1.2,0.7-2.6,0.8-4.1
		c0.1-1.4,0.1-2.9,0.1-4.5c0-1.6,0-3-0.1-4.3C273.2,84.4,273,83.1,272.7,82z M226,82.5h24.3c2.6,0,4.8,0,6.6,0.1
		c1.7,0.1,3.2,0.2,4.3,0.4c1.3,0.2,1.9,0.5,2.3,0.7c0.4,0.3,0.7,0.6,0.9,1c0.2,0.5,0.4,1.2,0.4,2c0.1,1,0.1,2.1,0.1,3.4
		c0,1.4,0,2.6-0.1,3.7c0,0.9-0.2,1.6-0.4,2.2c-0.2,0.5-0.5,0.9-0.9,1.2c-0.5,0.3-1.2,0.6-2.2,0.8c-1.1,0.2-2.5,0.4-4.3,0.5
		c-1.8,0.1-4,0.1-6.6,0.1H226V82.5z"/>
	<polygon points="288.8,74.9 280.2,74.9 280.2,124.9 318.8,124.9 318.8,117.4 288.8,117.4 	"/>
	<path d="M354.2,74.9l-28.5,50h9.9l6.2-10.9h35.6l6.2,10.9h9.2l-28.4-50H354.2z M346,106.5l13.5-23.7l13.5,23.7H346z"/>
	<polygon points="410.9,97.5 389.8,74.9 378.3,74.9 406.7,104.4 406.7,124.9 415.2,124.9 415.2,104.4 443.6,74.9 432.1,74.9 	"/>
	<path d="M564.7,80.1c-0.7-1.1-1.7-2.1-2.9-2.8c-1.2-0.8-2.6-1.4-4.3-1.9c-1.7-0.5-3.7-0.8-6-1.1c-2.3-0.2-4.9-0.3-7.9-0.3h-5.9
		c-3.6,0-6.9,0.1-9.6,0.4c-2.7,0.3-5.1,0.7-7.1,1.2c-2,0.6-3.7,1.3-5,2.1c-1.4,0.9-2.4,1.9-3.2,3c-0.8,1.1-1.4,2.4-1.6,3.8
		c-0.3,1.3-0.4,2.8-0.4,4.3c0,1.4,0.1,2.8,0.3,4c0.2,1.3,0.6,2.6,1.2,3.7c0.6,1.1,1.6,2.1,2.8,3c1.2,0.8,2.7,1.5,4.6,2.1
		c1.8,0.5,4.1,0.9,6.7,1.2c2.6,0.3,5.8,0.4,9.4,0.4h8.1c3.2,0,5.8,0.1,7.8,0.4c1.9,0.3,3.3,0.7,4.2,1.2c0.9,0.5,1.4,1.1,1.7,2
		c0.3,1,0.5,2.2,0.5,3.8c0,1.5-0.2,2.7-0.7,3.7c-0.4,0.9-1.2,1.7-2.3,2.3c-1.2,0.7-2.9,1.1-5,1.4c-2.2,0.3-5,0.5-8.4,0.5h-7.9
		c-2.9,0-5.4-0.1-7.4-0.2c-1.8-0.1-3.3-0.4-4.4-0.9c-1-0.4-1.6-1-2-1.8c-0.4-0.9-0.7-2.2-0.7-3.8v-1.3h-8.5v1.3c0,1.6,0.1,3,0.4,4.3
		c0.3,1.4,0.8,2.6,1.5,3.7c0.7,1.1,1.7,2.1,2.9,2.9c1.2,0.8,2.6,1.4,4.3,1.9c1.7,0.5,3.7,0.8,6,1.1c2.3,0.2,4.9,0.3,7.9,0.3h7.9
		c3.3,0,6.3-0.2,8.8-0.5c2.5-0.3,4.7-0.8,6.6-1.4c1.9-0.6,3.4-1.4,4.7-2.3c1.3-0.9,2.3-2,3-3.2c0.7-1.2,1.3-2.5,1.5-3.9
		c0.3-1.3,0.4-2.8,0.4-4.3c0-1.5-0.1-2.9-0.2-4.2c-0.2-1.4-0.6-2.7-1.1-3.8c-0.6-1.2-1.4-2.2-2.5-3.1c-1.1-0.9-2.5-1.6-4.2-2.2
		c-1.7-0.6-3.7-1-6.1-1.2c-2.4-0.3-5.2-0.4-8.5-0.4h-8.1c-2.6,0-4.9-0.1-6.7-0.2c-1.8-0.1-3.4-0.3-4.6-0.5c-1.2-0.2-2.2-0.5-2.8-0.9
		c-0.6-0.3-1.1-0.7-1.4-1.1c-0.3-0.5-0.5-1-0.7-1.6c-0.1-0.7-0.2-1.6-0.2-2.5c0-1.4,0.2-2.6,0.7-3.6c0.4-0.8,1.3-1.5,2.5-2.1
		c1.4-0.6,3.3-1,5.7-1.3c2.5-0.3,5.7-0.4,9.6-0.4h5.9c2.9,0,5.4,0.1,7.4,0.2c1.9,0.1,3.4,0.4,4.5,0.9c1,0.4,1.6,1,2,1.8
		c0.4,0.9,0.7,2.1,0.7,3.8v1.3h8.5v-1.3c0-1.6-0.1-3-0.4-4.3C565.9,82.4,565.4,81.2,564.7,80.1z"/>
	<path d="M648.4,74.9l-28.5,50h9.9l6.2-10.9h35.6l6.2,10.9h9.2l-28.4-50H648.4z M640.2,106.5l13.5-23.7l13.5,23.7H640.2z"/>
	<polygon points="629.6,74.9 573.7,74.9 573.7,82.5 597.4,82.5 597.4,124.9 605.9,124.9 605.9,82.5 629.6,82.5 	"/>
	<polygon points="679.1,82.5 702.8,82.5 702.8,124.9 711.4,124.9 711.4,82.5 735.1,82.5 735.1,74.9 679.1,74.9 	"/>
	<polygon points="744.8,124.9 794.8,124.9 794.8,117.4 753.4,117.4 753.4,103.2 792.9,103.2 792.9,95.7 753.4,95.7 753.4,82.5 
		794.8,82.5 794.8,74.9 744.8,74.9 	"/>
	<path d="M860,89.4v-1.3c0-1.6-0.1-3-0.4-4.3c-0.3-1.4-0.8-2.6-1.5-3.7c-0.7-1.1-1.7-2.1-2.9-2.8c-1.2-0.8-2.6-1.4-4.3-1.9
		c-1.7-0.5-3.7-0.8-6-1.1c-2.3-0.2-4.9-0.3-7.9-0.3h-5.9c-3.6,0-6.9,0.1-9.6,0.4c-2.7,0.3-5.1,0.7-7.1,1.2c-2,0.6-3.7,1.3-5,2.1
		c-1.4,0.9-2.4,1.9-3.2,3c-0.8,1.1-1.4,2.4-1.6,3.8c-0.3,1.3-0.4,2.8-0.4,4.3c0,1.4,0.1,2.8,0.3,4c0.2,1.3,0.6,2.6,1.2,3.7
		c0.6,1.1,1.6,2.1,2.8,3c1.2,0.8,2.7,1.5,4.6,2.1c1.8,0.5,4.1,0.9,6.7,1.2c2.6,0.3,5.8,0.4,9.4,0.4h8.1c3.2,0,5.8,0.1,7.8,0.4
		c1.9,0.3,3.3,0.7,4.3,1.2c0.9,0.5,1.4,1.1,1.7,2c0.3,1,0.5,2.2,0.5,3.8c0,1.5-0.2,2.7-0.7,3.7c-0.4,0.9-1.2,1.7-2.3,2.3
		c-1.2,0.7-2.9,1.1-5,1.4c-2.2,0.3-5,0.5-8.4,0.5h-7.9c-2.9,0-5.4-0.1-7.4-0.2c-1.8-0.1-3.3-0.4-4.4-0.9c-1-0.4-1.6-1-2-1.8
		c-0.4-0.9-0.7-2.2-0.7-3.8v-1.3h-8.5v1.3c0,1.6,0.1,3,0.4,4.3c0.3,1.4,0.8,2.6,1.5,3.7c0.7,1.1,1.7,2.1,2.9,2.9
		c1.2,0.8,2.6,1.4,4.4,1.9c1.7,0.5,3.7,0.8,6,1.1c2.3,0.2,4.9,0.3,7.9,0.3h7.9c3.3,0,6.3-0.2,8.8-0.5c2.5-0.3,4.7-0.8,6.6-1.4
		c1.9-0.6,3.4-1.4,4.7-2.3c1.3-0.9,2.3-2,3-3.2c0.7-1.2,1.3-2.5,1.5-3.9c0.3-1.3,0.4-2.8,0.4-4.3c0-1.5-0.1-2.9-0.2-4.2
		c-0.2-1.4-0.6-2.7-1.1-3.8c-0.6-1.2-1.4-2.2-2.5-3.1c-1.1-0.9-2.5-1.6-4.2-2.2c-1.7-0.6-3.7-1-6.1-1.2c-2.4-0.3-5.2-0.4-8.5-0.4
		h-8.1c-2.6,0-4.9-0.1-6.7-0.2c-1.8-0.1-3.4-0.3-4.6-0.5c-1.2-0.2-2.1-0.5-2.8-0.9c-0.6-0.3-1.1-0.7-1.4-1.1c-0.3-0.4-0.5-1-0.6-1.6
		c-0.1-0.7-0.2-1.6-0.2-2.5c0-1.4,0.2-2.6,0.7-3.6c0.4-0.8,1.3-1.5,2.5-2.1c1.4-0.6,3.3-1,5.7-1.3c2.5-0.3,5.7-0.4,9.6-0.4h5.9
		c2.9,0,5.4,0.1,7.4,0.2c1.9,0.1,3.4,0.4,4.5,0.9c1,0.4,1.6,1,2,1.8c0.4,0.9,0.7,2.1,0.7,3.8v1.3H860z"/>
	<linearGradient id="SVGID_1_" gradientUnits="userSpaceOnUse" x1="115.9706" y1="40.0752" x2="37.9142" y2="121.5465">
		<stop  offset="0" style="stop-color:#04E7C1"/>
		<stop  offset="1" style="stop-color:#697FF6"/>
	</linearGradient>
	<circle class="st1" cx="74.7" cy="83.1" r="9.5"/>
	
		<linearGradient id="SVGID_00000178178850128991024690000017374636253994222769_" gradientUnits="userSpaceOnUse" x1="111.2525" y1="35.555" x2="33.1962" y2="117.0263">
		<stop  offset="0" style="stop-color:#04E7C1"/>
		<stop  offset="1" style="stop-color:#697FF6"/>
	</linearGradient>
	<circle style="fill:url(#SVGID_00000178178850128991024690000017374636253994222769_);" cx="49.5" cy="100" r="9.5"/>
	
		<linearGradient id="SVGID_00000072986967422821125740000018064252361452215978_" gradientUnits="userSpaceOnUse" x1="132.6542" y1="56.0596" x2="54.5979" y2="137.5309">
		<stop  offset="0" style="stop-color:#04E7C1"/>
		<stop  offset="1" style="stop-color:#697FF6"/>
	</linearGradient>
	<circle style="fill:url(#SVGID_00000072986967422821125740000018064252361452215978_);" cx="74.7" cy="116.5" r="9.5"/>
	
		<linearGradient id="SVGID_00000070829493087046791880000001810402173403378595_" gradientUnits="userSpaceOnUse" x1="143.6466" y1="66.5912" x2="65.5902" y2="148.0624">
		<stop  offset="0" style="stop-color:#04E7C1"/>
		<stop  offset="1" style="stop-color:#697FF6"/>
	</linearGradient>
	<path style="fill:url(#SVGID_00000070829493087046791880000001810402173403378595_);" d="M168.6,95.6l-68-42.2
		c-3.5-2.2-8,0.3-8,4.4v13.4c0,2.2,2.2,3.7,4.2,3c1.6-0.6,3.4-0.8,5.3-0.4c3.7,0.7,6.7,3.7,7.4,7.4c1.2,6.1-3.5,11.4-9.3,11.4
		c-1.2,0-2.3-0.2-3.3-0.6c-2.1-0.8-4.3,0.8-4.3,3v9.7c0,2.2,2.2,3.7,4.2,3c1.6-0.6,3.4-0.8,5.3-0.4c3.7,0.7,6.7,3.7,7.4,7.4
		c1.2,6.1-3.5,11.4-9.3,11.4c-1.2,0-2.3-0.2-3.3-0.6c-2.1-0.8-4.3,0.8-4.3,3v13.8c0,4.1,4.5,6.6,8,4.4l68-42.2
		C171.9,102.4,171.9,97.6,168.6,95.6z M125.4,109.5c-5.3,0-9.5-4.3-9.5-9.5c0-5.3,4.3-9.5,9.5-9.5c5.3,0,9.5,4.3,9.5,9.5
		C134.9,105.3,130.6,109.5,125.4,109.5z"/>
	
		<linearGradient id="SVGID_00000064313256894567680290000002399882327126007947_" gradientUnits="userSpaceOnUse" x1="452.4034" y1="179.6548" x2="507.5603" y2="0.7675">
		<stop  offset="7.237838e-02" style="stop-color:#667FFF"/>
		<stop  offset="0.7817" style="stop-color:#04E7C1"/>
	</linearGradient>
	<polygon style="fill:url(#SVGID_00000064313256894567680290000002399882327126007947_);" points="452,124.9 502,124.9 502,117.4 
		460.5,117.4 460.5,103.2 500,103.2 500,95.7 460.5,95.7 460.5,82.5 502,82.5 502,75 452,75 	"/>
</g>
<g>
	<path class="st10" d="M225.3,151.9c-3,0-5.2,2.3-5.2,6.6c0,4.3,2.2,6.6,5.3,6.6c2.8,0,4.7-1.8,4.7-4.6h-4.3v-2.2h6.9v2
		c0,4.4-3,7.2-7.3,7.2c-4.8,0-8-3.4-8-9c0-5.6,3.3-9,7.8-9c3.8,0,6.7,2.4,7.3,5.8h-2.7C229.2,153.2,227.6,151.9,225.3,151.9z"/>
	<path class="st10" d="M240.9,149.8h6.2c4.1,0,6.1,2.3,6.1,5.5c0,2.4-1.1,4.1-3.2,4.9l3.9,7.1h-3l-3.6-6.6c-0.1,0-0.1,0-0.2,0h-3.6
		v6.6h-2.6V149.8z M246.9,158.4c2.6,0,3.7-1.1,3.7-3.1c0-2-1.1-3.2-3.7-3.2h-3.3v6.4H246.9z"/>
	<path class="st10" d="M268.6,167.5c-4.6,0-7.9-3.4-7.9-9c0-5.6,3.3-9,7.9-9c4.5,0,7.9,3.4,7.9,9S273.2,167.5,268.6,167.5z
		 M268.6,151.9c-3,0-5.3,2.3-5.3,6.6s2.3,6.6,5.3,6.6c3,0,5.3-2.3,5.3-6.6S271.6,151.9,268.6,151.9z"/>
	<path class="st10" d="M283,149.8h2.8l3.4,13.6h0.2l3.6-13.6h2.8l3.6,13.6h0.2l3.4-13.6h2.8l-4.9,17.5H298l-3.7-13.1h-0.1l-3.7,13.1
		h-2.7L283,149.8z"/>
	<path class="st10" d="M325.7,149.8l4.6,8h0.2l4.6-8h3l-6.4,10.6v6.9H329v-6.9l-6.4-10.6H325.7z"/>
	<path class="st10" d="M351.8,167.5c-4.6,0-7.9-3.4-7.9-9c0-5.6,3.3-9,7.9-9c4.5,0,7.9,3.4,7.9,9S356.3,167.5,351.8,167.5z
		 M351.8,151.9c-3,0-5.3,2.3-5.3,6.6s2.2,6.6,5.3,6.6c3,0,5.3-2.3,5.3-6.6S354.8,151.9,351.8,151.9z"/>
	<path class="st10" d="M381.7,149.8v11.5c0,3.7-2.8,6.3-7,6.3s-7-2.6-7-6.3v-11.5h2.6v11.3c0,2.4,1.7,4.1,4.3,4.1
		c2.7,0,4.3-1.7,4.3-4.1v-11.3H381.7z"/>
	<path class="st10" d="M390.4,149.8h6.2c4.1,0,6.1,2.3,6.1,5.5c0,2.4-1.1,4.1-3.2,4.9l3.9,7.1h-3l-3.6-6.6c-0.1,0-0.1,0-0.2,0h-3.6
		v6.6h-2.6V149.8z M396.4,158.4c2.6,0,3.7-1.1,3.7-3.1c0-2-1.1-3.2-3.7-3.2h-3.3v6.4H396.4z"/>
	<path class="st10" d="M429.3,151.9c-3,0-5.2,2.3-5.2,6.6c0,4.3,2.3,6.6,5.3,6.6c2.8,0,4.7-1.8,4.7-4.6h-4.3v-2.2h6.9v2
		c0,4.4-3,7.2-7.3,7.2c-4.8,0-8-3.4-8-9c0-5.6,3.3-9,7.9-9c3.8,0,6.7,2.4,7.3,5.8h-2.7C433.2,153.2,431.7,151.9,429.3,151.9z"/>
	<path class="st10" d="M443,167.3l6.3-17.5h3.1l6.3,17.5h-2.8l-1.6-4.6h-6.8l-1.6,4.6H443z M453.5,160.4l-2.6-7.5h-0.1l-2.6,7.5
		H453.5z"/>
	<path class="st10" d="M469.3,149.8l5.6,13.6h0.2l5.6-13.6h3.2v17.5h-2.5v-12.7h-0.2l-5.2,12.7h-2.1l-5.2-12.7h-0.2v12.7h-2.5v-17.5
		H469.3z"/>
	<path class="st10" d="M492.6,149.8h11v2.3h-8.3v5.3h7.8v2.3h-7.8v5.4h8.4v2.3h-11.1V149.8z"/>
	<path class="st10" d="M511.7,165.7c0-0.9,0.8-1.7,1.7-1.7c0.9,0,1.7,0.8,1.7,1.7c0,1-0.8,1.7-1.7,1.7
		C512.5,167.4,511.7,166.7,511.7,165.7z"/>
	<path class="st10" d="M534.5,149.8h6.4c3.7,0,5.5,2,5.5,4.6c0,2.2-1.3,3.3-3,3.7v0.2c1.7,0.1,3.6,1.6,3.6,4.3
		c0,2.7-1.8,4.7-5.9,4.7h-6.7V149.8z M540.7,157.3c1.8,0,3.2-1.1,3.2-2.8c0-1.5-1-2.6-3.1-2.6h-3.6v5.3H540.7z M541,165
		c2.5,0,3.5-1.1,3.5-2.6c0-1.7-1.3-3-3.5-3h-3.9v5.6H541z"/>
	<path class="st10" d="M569,149.8v11.5c0,3.7-2.8,6.3-7,6.3c-4.2,0-7-2.6-7-6.3v-11.5h2.6v11.3c0,2.4,1.7,4.1,4.3,4.1
		c2.7,0,4.3-1.7,4.3-4.1v-11.3H569z"/>
	<path class="st10" d="M580.4,167.3h-2.6v-17.5h2.6V167.3z"/>
	<path class="st10" d="M589.1,149.8h2.6V165h7.9v2.3h-10.6V149.8z"/>
	<path class="st10" d="M607.5,167.3v-17.5h5.9c5.2,0,8.3,3.3,8.3,8.7c0,5.5-3.1,8.8-8.4,8.8H607.5z M613,165c4,0,6-2.3,6-6.5
		c0-4.1-2-6.4-5.8-6.4h-3V165H613z"/>
	<path class="st10" d="M642.6,149.8l4.6,8h0.2l4.6-8h3l-6.4,10.6v6.9h-2.6v-6.9l-6.4-10.6H642.6z"/>
	<path class="st10" d="M668.7,167.5c-4.6,0-7.9-3.4-7.9-9c0-5.6,3.3-9,7.9-9c4.5,0,7.9,3.4,7.9,9S673.2,167.5,668.7,167.5z
		 M668.7,151.9c-3,0-5.3,2.3-5.3,6.6s2.2,6.6,5.3,6.6c3,0,5.3-2.3,5.3-6.6S671.7,151.9,668.7,151.9z"/>
	<path class="st10" d="M698.7,149.8v11.5c0,3.7-2.8,6.3-7,6.3s-7-2.6-7-6.3v-11.5h2.6v11.3c0,2.4,1.7,4.1,4.3,4.1
		c2.7,0,4.3-1.7,4.3-4.1v-11.3H698.7z"/>
	<path class="st10" d="M707.3,149.8h6.2c4.1,0,6.1,2.3,6.1,5.5c0,2.4-1.1,4.1-3.2,4.9l3.9,7.1h-3l-3.6-6.6c-0.1,0-0.1,0-0.2,0H710
		v6.6h-2.6V149.8z M713.3,158.4c2.6,0,3.7-1.1,3.7-3.1c0-2-1.1-3.2-3.7-3.2H710v6.4H713.3z"/>
	<path class="st10" d="M737.5,149.8h2.8l3.4,13.6h0.2l3.6-13.6h2.8l3.6,13.6h0.2l3.4-13.6h2.8l-4.9,17.5h-2.7l-3.7-13.1h-0.1
		l-3.7,13.1h-2.7L737.5,149.8z"/>
	<path class="st10" d="M767.3,149.8h11v2.3H770v5.3h7.8v2.3H770v5.4h8.4v2.3h-11.1V149.8z"/>
	<path class="st10" d="M785.4,167.3l6.3-17.5h3.1l6.3,17.5h-2.8l-1.6-4.6h-6.8l-1.6,4.6H785.4z M795.9,160.4l-2.6-7.5h-0.1l-2.6,7.5
		H795.9z"/>
	<path class="st10" d="M808.4,149.8h2.6V165h7.9v2.3h-10.6V149.8z"/>
	<path class="st10" d="M823.7,149.8h13.6v2.3h-5.5v15.3h-2.6V152h-5.5V149.8z"/>
	<path class="st10" d="M845.1,149.8h2.6v7.6h8.7v-7.6h2.7v17.5h-2.7v-7.6h-8.7v7.6h-2.6V149.8z"/>
	<path class="st10" d="M867.6,165.7c0-0.9,0.8-1.7,1.7-1.7c0.9,0,1.7,0.8,1.7,1.7c0,1-0.8,1.7-1.7,1.7
		C868.4,167.4,867.6,166.7,867.6,165.7z"/>
</g>
</svg>
