<?xml version="1.0" encoding="utf-8"?>
<!-- Generator: Adobe Illustrator 26.3.1, SVG Export Plug-In . SVG Version: 6.00 Build 0)  -->
<svg version="1.1" id="Layer_1" xmlns="http://www.w3.org/2000/svg" xmlns:xlink="http://www.w3.org/1999/xlink" x="0px" y="0px"
	 viewBox="0 0 900 200" style="enable-background:new 0 0 900 200;" xml:space="preserve">
<style type="text/css">
	.st0{fill:#FFFFFF;}
	.st1{fill:url(#SVGID_1_);}
	.st2{fill:url(#SVGID_00000158712180206119950730000009671854667177743524_);}
	.st3{fill:url(#SVGID_00000144318552694888911720000015647843495132640427_);}
	.st4{fill:url(#SVGID_00000051348838586483207840000002352082040747682207_);}
	.st5{fill:url(#SVGID_00000123405205324416546860000016776758479937248152_);}
	.st6{fill:url(#SVGID_00000045607625404679854620000018214065384630604417_);}
	.st7{fill:url(#SVGID_00000140736839553207531960000016889739808088217994_);}
	.st8{fill:url(#SVGID_00000081622610603618957390000015637864749147599035_);}
	.st9{fill:url(#SVGID_00000131333970409152966460000005950020451795721868_);}
	.st10{fill:#7F8183;}
	.st11{fill:url(#SVGID_00000017476029191560544440000012757121917856911289_);}
	.st12{fill:url(#SVGID_00000157277338677170140550000002862079384958656128_);}
	.st13{fill:url(#SVGID_00000050646522703346211910000010228456938600231349_);}
	.st14{fill:url(#SVGID_00000040559341646064329120000007061419636965652637_);}
	.st15{fill:url(#SVGID_00000089540201660882419550000013508671911375098280_);}
	.st16{fill:url(#SVGID_00000158716752039248717020000011232738190607700367_);}
	.st17{fill:url(#SVGID_00000181048775372405627000000009786068594706557865_);}
	.st18{fill:url(#SVGID_00000116237097664064353260000010934664407765684621_);}
	.st19{fill:url(#SVGID_00000119082471536873232170000014074333215516443040_);}
	.st20{fill:url(#SVGID_00000053532440328274390800000016254827992818517120_);}
	.st21{fill:url(#SVGID_00000119113713891474997170000001420222240366027442_);}
	.st22{fill:url(#SVGID_00000048483223224800080350000010200296830165810078_);}
	.st23{fill:url(#SVGID_00000101799432728075250120000014688509315978687137_);}
	.st24{fill:url(#SVGID_00000147216178318731970250000008265949450848741258_);}
	.st25{fill:url(#SVGID_00000041985925834970761020000000466367542918156464_);}
</style>
<g>
	<path class="st0" d="M272.7,82c-0.4-1.2-1-2.3-1.8-3.2c-0.8-0.9-2-1.7-3.5-2.2c-1.4-0.6-3.2-1-5.3-1.2c-2.1-0.3-4.6-0.4-7.6-0.4
		h-36.9v50h8.5v-18.8h24.3c3.7,0,6.8-0.1,9.3-0.4c2.6-0.3,4.7-0.7,6.4-1.3c1.8-0.6,3.2-1.4,4.2-2.4c1-1,1.8-2.1,2.2-3.4
		c0.4-1.2,0.7-2.6,0.8-4.1c0.1-1.4,0.1-2.9,0.1-4.5c0-1.6,0-3-0.1-4.3C273.2,84.4,273,83.1,272.7,82z M226,82.5h24.3
		c2.6,0,4.8,0,6.6,0.1c1.7,0.1,3.2,0.2,4.3,0.4c1.3,0.2,1.9,0.5,2.3,0.7c0.4,0.3,0.7,0.6,0.9,1c0.2,0.5,0.4,1.2,0.4,2
		c0.1,1,0.1,2.1,0.1,3.4c0,1.4,0,2.6-0.1,3.7c0,0.9-0.2,1.6-0.4,2.2c-0.2,0.5-0.5,0.9-0.9,1.2c-0.5,0.3-1.2,0.6-2.2,0.8
		c-1.1,0.2-2.5,0.4-4.3,0.5c-1.8,0.1-4,0.1-6.6,0.1H226V82.5z"/>
	<polygon class="st0" points="288.8,74.9 280.2,74.9 280.2,124.9 318.8,124.9 318.8,117.4 288.8,117.4 	"/>
	<path class="st0" d="M354.2,74.9l-28.5,50h9.9l6.2-10.9h35.6l6.2,10.9h9.2l-28.4-50H354.2z M346,106.5l13.5-23.7l13.5,23.7H346z"/>
	<polygon class="st0" points="410.9,97.5 389.8,74.9 378.3,74.9 406.7,104.4 406.7,124.9 415.2,124.9 415.2,104.4 443.6,74.9 
		432.1,74.9 	"/>
	<path class="st0" d="M564.7,80.1c-0.7-1.1-1.7-2.1-2.9-2.8c-1.2-0.8-2.6-1.4-4.3-1.9c-1.7-0.5-3.7-0.8-6-1.1
		c-2.3-0.2-4.9-0.3-7.9-0.3h-5.9c-3.6,0-6.9,0.1-9.6,0.4c-2.7,0.3-5.1,0.7-7.1,1.2c-2,0.6-3.7,1.3-5,2.1c-1.4,0.9-2.4,1.9-3.2,3
		c-0.8,1.1-1.4,2.4-1.6,3.8c-0.3,1.3-0.4,2.8-0.4,4.3c0,1.4,0.1,2.8,0.3,4c0.2,1.3,0.6,2.6,1.2,3.7c0.6,1.1,1.6,2.1,2.8,3
		c1.2,0.8,2.7,1.5,4.6,2.1c1.8,0.5,4.1,0.9,6.7,1.2c2.6,0.3,5.8,0.4,9.4,0.4h8.1c3.2,0,5.8,0.1,7.8,0.4c1.9,0.3,3.3,0.7,4.2,1.2
		c0.9,0.5,1.4,1.1,1.7,2c0.3,1,0.5,2.2,0.5,3.8c0,1.5-0.2,2.7-0.7,3.7c-0.4,0.9-1.2,1.7-2.3,2.3c-1.2,0.7-2.9,1.1-5,1.4
		c-2.2,0.3-5,0.5-8.4,0.5h-7.9c-2.9,0-5.4-0.1-7.4-0.2c-1.8-0.1-3.3-0.4-4.4-0.9c-1-0.4-1.6-1-2-1.8c-0.4-0.9-0.7-2.2-0.7-3.8v-1.3
		h-8.5v1.3c0,1.6,0.1,3,0.4,4.3c0.3,1.4,0.8,2.6,1.5,3.7c0.7,1.1,1.7,2.1,2.9,2.9c1.2,0.8,2.6,1.4,4.3,1.9c1.7,0.5,3.7,0.8,6,1.1
		c2.3,0.2,4.9,0.3,7.9,0.3h7.9c3.3,0,6.3-0.2,8.8-0.5c2.5-0.3,4.7-0.8,6.6-1.4c1.9-0.6,3.4-1.4,4.7-2.3c1.3-0.9,2.3-2,3-3.2
		c0.7-1.2,1.3-2.5,1.5-3.9c0.3-1.3,0.4-2.8,0.4-4.3c0-1.5-0.1-2.9-0.2-4.2c-0.2-1.4-0.6-2.7-1.1-3.8c-0.6-1.2-1.4-2.2-2.5-3.1
		c-1.1-0.9-2.5-1.6-4.2-2.2c-1.7-0.6-3.7-1-6.1-1.2c-2.4-0.3-5.2-0.4-8.5-0.4h-8.1c-2.6,0-4.9-0.1-6.7-0.2c-1.8-0.1-3.4-0.3-4.6-0.5
		c-1.2-0.2-2.2-0.5-2.8-0.9c-0.6-0.3-1.1-0.7-1.4-1.1c-0.3-0.5-0.5-1-0.7-1.6c-0.1-0.7-0.2-1.6-0.2-2.5c0-1.4,0.2-2.6,0.7-3.6
		c0.4-0.8,1.3-1.5,2.5-2.1c1.4-0.6,3.3-1,5.7-1.3c2.5-0.3,5.7-0.4,9.6-0.4h5.9c2.9,0,5.4,0.1,7.4,0.2c1.9,0.1,3.4,0.4,4.5,0.9
		c1,0.4,1.6,1,2,1.8c0.4,0.9,0.7,2.1,0.7,3.8v1.3h8.5v-1.3c0-1.6-0.1-3-0.4-4.3C565.9,82.4,565.4,81.2,564.7,80.1z"/>
	<path class="st0" d="M648.4,74.9l-28.5,50h9.9l6.2-10.9h35.6l6.2,10.9h9.2l-28.4-50H648.4z M640.2,106.5l13.5-23.7l13.5,23.7H640.2
		z"/>
	<polygon class="st0" points="629.6,74.9 573.7,74.9 573.7,82.5 597.4,82.5 597.4,124.9 605.9,124.9 605.9,82.5 629.6,82.5 	"/>
	<polygon class="st0" points="679.1,82.5 702.8,82.5 702.8,124.9 711.4,124.9 711.4,82.5 735.1,82.5 735.1,74.9 679.1,74.9 	"/>
	<polygon class="st0" points="744.8,124.9 794.8,124.9 794.8,117.4 753.4,117.4 753.4,103.2 792.9,103.2 792.9,95.7 753.4,95.7 
		753.4,82.5 794.8,82.5 794.8,74.9 744.8,74.9 	"/>
	<path class="st0" d="M860,89.4v-1.3c0-1.6-0.1-3-0.4-4.3c-0.3-1.4-0.8-2.6-1.5-3.7c-0.7-1.1-1.7-2.1-2.9-2.8
		c-1.2-0.8-2.6-1.4-4.3-1.9c-1.7-0.5-3.7-0.8-6-1.1c-2.3-0.2-4.9-0.3-7.9-0.3h-5.9c-3.6,0-6.9,0.1-9.6,0.4c-2.7,0.3-5.1,0.7-7.1,1.2
		c-2,0.6-3.7,1.3-5,2.1c-1.4,0.9-2.4,1.9-3.2,3c-0.8,1.1-1.4,2.4-1.6,3.8c-0.3,1.3-0.4,2.8-0.4,4.3c0,1.4,0.1,2.8,0.3,4
		c0.2,1.3,0.6,2.6,1.2,3.7c0.6,1.1,1.6,2.1,2.8,3c1.2,0.8,2.7,1.5,4.6,2.1c1.8,0.5,4.1,0.9,6.7,1.2c2.6,0.3,5.8,0.4,9.4,0.4h8.1
		c3.2,0,5.8,0.1,7.8,0.4c1.9,0.3,3.3,0.7,4.3,1.2c0.9,0.5,1.4,1.1,1.7,2c0.3,1,0.5,2.2,0.5,3.8c0,1.5-0.2,2.7-0.7,3.7
		c-0.4,0.9-1.2,1.7-2.3,2.3c-1.2,0.7-2.9,1.1-5,1.4c-2.2,0.3-5,0.5-8.4,0.5h-7.9c-2.9,0-5.4-0.1-7.4-0.2c-1.8-0.1-3.3-0.4-4.4-0.9
		c-1-0.4-1.6-1-2-1.8c-0.4-0.9-0.7-2.2-0.7-3.8v-1.3h-8.5v1.3c0,1.6,0.1,3,0.4,4.3c0.3,1.4,0.8,2.6,1.5,3.7c0.7,1.1,1.7,2.1,2.9,2.9
		c1.2,0.8,2.6,1.4,4.4,1.9c1.7,0.5,3.7,0.8,6,1.1c2.3,0.2,4.9,0.3,7.9,0.3h7.9c3.3,0,6.3-0.2,8.8-0.5c2.5-0.3,4.7-0.8,6.6-1.4
		c1.9-0.6,3.4-1.4,4.7-2.3c1.3-0.9,2.3-2,3-3.2c0.7-1.2,1.3-2.5,1.5-3.9c0.3-1.3,0.4-2.8,0.4-4.3c0-1.5-0.1-2.9-0.2-4.2
		c-0.2-1.4-0.6-2.7-1.1-3.8c-0.6-1.2-1.4-2.2-2.5-3.1c-1.1-0.9-2.5-1.6-4.2-2.2c-1.7-0.6-3.7-1-6.1-1.2c-2.4-0.3-5.2-0.4-8.5-0.4
		h-8.1c-2.6,0-4.9-0.1-6.7-0.2c-1.8-0.1-3.4-0.3-4.6-0.5c-1.2-0.2-2.1-0.5-2.8-0.9c-0.6-0.3-1.1-0.7-1.4-1.1c-0.3-0.4-0.5-1-0.6-1.6
		c-0.1-0.7-0.2-1.6-0.2-2.5c0-1.4,0.2-2.6,0.7-3.6c0.4-0.8,1.3-1.5,2.5-2.1c1.4-0.6,3.3-1,5.7-1.3c2.5-0.3,5.7-0.4,9.6-0.4h5.9
		c2.9,0,5.4,0.1,7.4,0.2c1.9,0.1,3.4,0.4,4.5,0.9c1,0.4,1.6,1,2,1.8c0.4,0.9,0.7,2.1,0.7,3.8v1.3H860z"/>
	<linearGradient id="SVGID_1_" gradientUnits="userSpaceOnUse" x1="115.9706" y1="40.0752" x2="37.9142" y2="121.5465">
		<stop  offset="0" style="stop-color:#04E7C1"/>
		<stop  offset="1" style="stop-color:#697FF6"/>
	</linearGradient>
	<circle class="st1" cx="74.7" cy="83.1" r="9.5"/>
	
		<linearGradient id="SVGID_00000039111796513874582000000009306493760917581725_" gradientUnits="userSpaceOnUse" x1="111.2525" y1="35.555" x2="33.1962" y2="117.0263">
		<stop  offset="0" style="stop-color:#04E7C1"/>
		<stop  offset="1" style="stop-color:#697FF6"/>
	</linearGradient>
	<circle style="fill:url(#SVGID_00000039111796513874582000000009306493760917581725_);" cx="49.5" cy="100" r="9.5"/>
	
		<linearGradient id="SVGID_00000154388513927719254420000005205601728014729619_" gradientUnits="userSpaceOnUse" x1="132.6542" y1="56.0596" x2="54.5979" y2="137.5309">
		<stop  offset="0" style="stop-color:#04E7C1"/>
		<stop  offset="1" style="stop-color:#697FF6"/>
	</linearGradient>
	<circle style="fill:url(#SVGID_00000154388513927719254420000005205601728014729619_);" cx="74.7" cy="116.5" r="9.5"/>
	
		<linearGradient id="SVGID_00000086668546188322978900000010520180479652046987_" gradientUnits="userSpaceOnUse" x1="143.6466" y1="66.5912" x2="65.5902" y2="148.0624">
		<stop  offset="0" style="stop-color:#04E7C1"/>
		<stop  offset="1" style="stop-color:#697FF6"/>
	</linearGradient>
	<path style="fill:url(#SVGID_00000086668546188322978900000010520180479652046987_);" d="M168.6,95.6l-68-42.2
		c-3.5-2.2-8,0.3-8,4.4v13.4c0,2.2,2.2,3.7,4.2,3c1.6-0.6,3.4-0.8,5.3-0.4c3.7,0.7,6.7,3.7,7.4,7.4c1.2,6.1-3.5,11.4-9.3,11.4
		c-1.2,0-2.3-0.2-3.3-0.6c-2.1-0.8-4.3,0.8-4.3,3v9.7c0,2.2,2.2,3.7,4.2,3c1.6-0.6,3.4-0.8,5.3-0.4c3.7,0.7,6.7,3.7,7.4,7.4
		c1.2,6.1-3.5,11.4-9.3,11.4c-1.2,0-2.3-0.2-3.3-0.6c-2.1-0.8-4.3,0.8-4.3,3v13.8c0,4.1,4.5,6.6,8,4.4l68-42.2
		C171.9,102.4,171.9,97.6,168.6,95.6z M125.4,109.5c-5.3,0-9.5-4.3-9.5-9.5c0-5.3,4.3-9.5,9.5-9.5c5.3,0,9.5,4.3,9.5,9.5
		C134.9,105.3,130.6,109.5,125.4,109.5z"/>
	
		<linearGradient id="SVGID_00000106848591360876946310000008679695704514722714_" gradientUnits="userSpaceOnUse" x1="452.4034" y1="179.6548" x2="507.5603" y2="0.7675">
		<stop  offset="7.237838e-02" style="stop-color:#667FFF"/>
		<stop  offset="0.7817" style="stop-color:#04E7C1"/>
	</linearGradient>
	<polygon style="fill:url(#SVGID_00000106848591360876946310000008679695704514722714_);" points="452,124.9 502,124.9 502,117.4 
		460.5,117.4 460.5,103.2 500,103.2 500,95.7 460.5,95.7 460.5,82.5 502,82.5 502,75 452,75 	"/>
</g>
</svg>
