<?xml version="1.0" encoding="utf-8"?>
<!-- Generator: Adobe Illustrator 26.3.1, SVG Export Plug-In . SVG Version: 6.00 Build 0)  -->
<svg version="1.1" id="Layer_1" xmlns="http://www.w3.org/2000/svg" xmlns:xlink="http://www.w3.org/1999/xlink" x="0px" y="0px"
	 viewBox="0 0 500 500" style="enable-background:new 0 0 500 500;" xml:space="preserve">
<style type="text/css">
	.st0{fill:#FFFFFF;}
	.st1{fill:url(#SVGID_1_);}
	.st2{fill:url(#SVGID_00000121279162693105321900000015202484066146778287_);}
	.st3{fill:url(#SVGID_00000183245292061957211090000008686240468069246638_);}
	.st4{fill:url(#SVGID_00000100377099479650747190000006813447915470467757_);}
	.st5{fill:url(#SVGID_00000075874479328931011660000008414442345714389140_);}
	.st6{fill:url(#SVGID_00000129890140731821213210000006810295606896158604_);}
	.st7{fill:url(#SVGID_00000065766604846210026220000011545604829998090904_);}
	.st8{fill:url(#SVGID_00000106145507488723944100000007349608636870880156_);}
	.st9{fill:url(#SVGID_00000018237891398154766630000012856312185466768776_);}
	.st10{fill:#7F8183;}
	.st11{fill:url(#SVGID_00000016056901688944313040000003943703212010164889_);}
	.st12{fill:url(#SVGID_00000121991991732596411410000012616843099485976975_);}
	.st13{fill:url(#SVGID_00000109711077622325575120000000217538097932630952_);}
	.st14{fill:url(#SVGID_00000093871647955474044270000017854823850968204716_);}
	.st15{fill:url(#SVGID_00000142173079859455928460000001224624271015439520_);}
	.st16{fill:url(#SVGID_00000135688615511776693430000011667419352454916240_);}
	.st17{fill:url(#SVGID_00000097483122979863142400000002054517800854007200_);}
	.st18{fill:url(#SVGID_00000127763843135299349940000004543442184793663677_);}
	.st19{fill:url(#SVGID_00000012462658671040970980000003721227370265273263_);}
	.st20{fill:url(#SVGID_00000119805422768268617680000006414471845543762071_);}
	.st21{fill:url(#SVGID_00000140706707469877582260000004892181786077521085_);}
	.st22{fill:url(#SVGID_00000157283121349890716710000016710508019651093134_);}
	.st23{fill:url(#SVGID_00000083779831123539261390000002407710577939006115_);}
	.st24{fill:url(#SVGID_00000045581674534972260250000002226589618134434997_);}
	.st25{fill:url(#SVGID_00000114758020530904685740000012613537397660021681_);}
</style>
<g>
	<linearGradient id="SVGID_1_" gradientUnits="userSpaceOnUse" x1="281.8557" y1="67.1148" x2="43.6345" y2="315.7581">
		<stop  offset="0" style="stop-color:#04E7C1"/>
		<stop  offset="1" style="stop-color:#697FF6"/>
	</linearGradient>
	<circle class="st1" cx="156" cy="198.5" r="29"/>
	
		<linearGradient id="SVGID_00000134229637577439153810000005900163212574762117_" gradientUnits="userSpaceOnUse" x1="267.4567" y1="53.3194" x2="29.2355" y2="301.9627">
		<stop  offset="0" style="stop-color:#04E7C1"/>
		<stop  offset="1" style="stop-color:#697FF6"/>
	</linearGradient>
	<circle style="fill:url(#SVGID_00000134229637577439153810000005900163212574762117_);" cx="79" cy="250" r="29"/>
	
		<linearGradient id="SVGID_00000127004241012114009680000010445237855781661844_" gradientUnits="userSpaceOnUse" x1="332.7727" y1="115.8976" x2="94.5515" y2="364.541">
		<stop  offset="0" style="stop-color:#04E7C1"/>
		<stop  offset="1" style="stop-color:#697FF6"/>
	</linearGradient>
	<circle style="fill:url(#SVGID_00000127004241012114009680000010445237855781661844_);" cx="156" cy="300.5" r="29"/>
	
		<linearGradient id="SVGID_00000071545032304528770840000002601838531660795008_" gradientUnits="userSpaceOnUse" x1="366.3204" y1="148.0391" x2="128.0992" y2="396.6825">
		<stop  offset="0" style="stop-color:#04E7C1"/>
		<stop  offset="1" style="stop-color:#697FF6"/>
	</linearGradient>
	<path style="fill:url(#SVGID_00000071545032304528770840000002601838531660795008_);" d="M442.5,236.5L234.8,107.8
		c-10.6-6.6-24.3,1.1-24.3,13.5v41c0,6.6,6.6,11.4,12.8,9.1c4.9-1.9,10.4-2.4,16.2-1.3c11.3,2.2,20.4,11.3,22.6,22.6
		c3.6,18.6-10.5,34.8-28.5,34.8c-3.6,0-7-0.6-10.1-1.8c-6.3-2.4-13,2.3-13,9v29.5c0,6.6,6.6,11.4,12.8,9.1
		c4.9-1.9,10.4-2.4,16.2-1.3c11.3,2.2,20.4,11.3,22.6,22.6c3.6,18.6-10.5,34.8-28.5,34.8c-3.6,0-7-0.6-10.1-1.8
		c-6.3-2.4-13,2.3-13,9v42c0,12.5,13.7,20.1,24.3,13.5l207.6-128.7C452.5,257.3,452.5,242.7,442.5,236.5z M310.6,279
		c-16,0-29-13-29-29c0-16,13-29,29-29c16,0,29,13,29,29C339.6,266,326.6,279,310.6,279z"/>
</g>
</svg>
