<?xml version="1.0" encoding="utf-8"?>
<!-- Generator: Adobe Illustrator 26.3.1, SVG Export Plug-In . SVG Version: 6.00 Build 0)  -->
<svg version="1.1" id="Layer_1" xmlns="http://www.w3.org/2000/svg" xmlns:xlink="http://www.w3.org/1999/xlink" x="0px" y="0px"
	 viewBox="0 0 500 500" style="enable-background:new 0 0 500 500;" xml:space="preserve">
<style type="text/css">
	.st0{fill:#FFFFFF;}
	.st1{fill:url(#SVGID_1_);}
	.st2{fill:url(#SVGID_00000071520534710650008880000007185660433632475317_);}
	.st3{fill:url(#SVGID_00000105419567506613955660000017882529916349185957_);}
	.st4{fill:url(#SVGID_00000039811999555502732460000015585249081916744334_);}
	.st5{fill:url(#SVGID_00000046304981484070029640000015975595876697911464_);}
	.st6{fill:url(#SVGID_00000086669284567202632320000012174776125090369706_);}
	.st7{fill:url(#SVGID_00000151508485722767610500000005583545644987933102_);}
	.st8{fill:url(#SVGID_00000003812388664478150930000014556120382886861238_);}
	.st9{fill:url(#SVGID_00000051351747448162688310000009603217912792361660_);}
	.st10{fill:#7F8183;}
	.st11{fill:url(#SVGID_00000023999845680916237280000009557457476324399523_);}
	.st12{fill:url(#SVGID_00000033346732441610364700000018249631743373435526_);}
	.st13{fill:url(#SVGID_00000073682104203846970060000003445199768945173923_);}
	.st14{fill:url(#SVGID_00000008109491489754218440000015216687273926907324_);}
	.st15{fill:url(#SVGID_00000078044357529079191250000006809766640480652684_);}
	.st16{fill:url(#SVGID_00000163058742232255848920000007783721252882351790_);}
	.st17{fill:url(#SVGID_00000129181980641549303130000013312053207529223589_);}
	.st18{fill:url(#SVGID_00000159445983262661151390000012793409224225826987_);}
	.st19{fill:url(#SVGID_00000075137297221218778790000001829027207846078632_);}
	.st20{fill:url(#SVGID_00000051364112797080767670000011383727118390900876_);}
	.st21{fill:url(#SVGID_00000055665377992189617650000007092460411917008813_);}
	.st22{fill:url(#SVGID_00000106106658396446598920000014835666842336135053_);}
	.st23{fill:url(#SVGID_00000093888243851579202980000014047029959251191219_);}
	.st24{fill:url(#SVGID_00000000219039242908642130000014213649369524878999_);}
	.st25{fill:url(#SVGID_00000070119030270848297150000002831319500545198740_);}
</style>
<g>
	<circle class="st0" cx="156" cy="198.5" r="29"/>
	<circle class="st0" cx="79" cy="250" r="29"/>
	<circle class="st0" cx="156" cy="300.5" r="29"/>
	<path class="st0" d="M442.5,236.5L234.8,107.8c-10.6-6.6-24.3,1.1-24.3,13.5v41c0,6.6,6.6,11.4,12.8,9.1c4.9-1.9,10.4-2.4,16.2-1.3
		c11.3,2.2,20.4,11.3,22.6,22.6c3.6,18.6-10.5,34.8-28.5,34.8c-3.6,0-7-0.6-10.1-1.8c-6.3-2.4-13,2.3-13,9v29.5
		c0,6.6,6.6,11.4,12.8,9.1c4.9-1.9,10.4-2.4,16.2-1.3c11.3,2.2,20.4,11.3,22.6,22.6c3.6,18.6-10.5,34.8-28.5,34.8
		c-3.6,0-7-0.6-10.1-1.8c-6.3-2.4-13,2.3-13,9v42c0,12.5,13.7,20.1,24.3,13.5l207.6-128.7C452.5,257.3,452.5,242.7,442.5,236.5z
		 M310.6,279c-16,0-29-13-29-29c0-16,13-29,29-29c16,0,29,13,29,29C339.6,266,326.6,279,310.6,279z"/>
</g>
</svg>
